<svg width="34" height="39" viewBox="0 0 34 39" fill="none" xmlns="http://www.w3.org/2000/svg">
<path d="M21.5195 25.7158C21.5195 29.6159 18.1699 32.736 14.0989 32.736C9.97632 32.736 6.67827 29.5672 6.67827 25.7158C6.67827 21.8157 10.0279 18.6956 14.0989 18.6956C18.2214 18.6956 21.5195 21.8157 21.5195 25.7158Z" fill="#00A19C"/>
<path d="M23.6323 16.0143L33.0627 0.608795H18.5306C14.5111 0.706298 13.429 1.48632 11.883 4.0214L2.55571 19.3294C1.37048 21.1819 0.700562 23.3757 0.700562 25.7158C0.700562 30.3472 3.27716 34.3448 7.1936 36.5874C9.20335 37.7087 11.5738 38.3912 14.0989 38.3912C21.468 38.3912 27.4972 32.736 27.4972 25.7158C27.4972 23.327 26.7758 21.0844 25.5905 19.1831L23.6323 16.0143ZM18.6337 3.87514H27.1365L21.6741 12.7967L19.8189 9.72532L16.3663 4.07015C16.8301 3.9239 17.5515 3.87514 18.6337 3.87514ZM14.0989 35.1248C11.6769 35.1248 9.40948 34.2961 7.65739 32.931C5.49304 31.2247 4.10168 28.5921 4.10168 25.7158C4.10168 23.9608 4.617 22.352 5.49304 20.9382C5.49304 20.9382 14.0474 6.89774 14.0989 6.84899L17.4485 12.3092L22.7047 20.9382C23.5808 22.352 24.0961 23.9608 24.0961 25.7158C24.0446 30.9322 19.6128 35.1248 14.0989 35.1248Z" fill="#00A19C"/>
</svg>
