<svg width="37" height="41" viewBox="0 0 37 41" fill="none" xmlns="http://www.w3.org/2000/svg">
<path d="M15.0989 41C12.3677 41 9.68802 40.3175 7.31755 38.9524C2.7312 36.3199 0 31.7372 0 26.7158C0 24.1807 0.721448 21.6944 2.06128 19.5006C2.21588 19.2081 3.34958 17.4043 11.3886 4.19263C13.3468 1.02378 15.0474 0.097503 19.4791 0H19.5306H37L26.6421 17.0143L28.0334 19.3056C29.4248 21.5482 30.1978 24.0832 30.1978 26.6671C30.1978 34.5648 23.3955 41 15.0989 41Z" fill="white"/>
<path d="M24.6323 17.0143L34.0627 1.6088H19.5306C15.5111 1.7063 14.429 2.48632 12.883 5.0214L3.55571 20.3294C2.37048 22.1819 1.70056 24.3757 1.70056 26.7158C1.70056 31.3472 4.27716 35.3448 8.1936 37.5874C10.2033 38.7087 12.5738 39.3912 15.0989 39.3912C22.468 39.3912 28.4972 33.736 28.4972 26.7158C28.4972 24.327 27.7758 22.0844 26.5905 20.1831L24.6323 17.0143Z" fill="white"/>
<path d="M22.5195 26.7158C22.5195 30.6159 19.1699 33.736 15.0989 33.736C10.9763 33.736 7.67827 30.5672 7.67827 26.7158C7.67827 22.8157 11.0279 19.6956 15.0989 19.6956C19.2214 19.6956 22.5195 22.8157 22.5195 26.7158Z" fill="#00A19C"/>
<path d="M24.6323 17.0143L34.0627 1.6088H19.5306C15.5111 1.7063 14.429 2.48632 12.883 5.0214L3.55571 20.3294C2.37048 22.1819 1.70056 24.3757 1.70056 26.7158C1.70056 31.3472 4.27716 35.3448 8.1936 37.5874C10.2033 38.7087 12.5738 39.3912 15.0989 39.3912C22.468 39.3912 28.4972 33.736 28.4972 26.7158C28.4972 24.327 27.7758 22.0844 26.5905 20.1831L24.6323 17.0143ZM19.6337 4.87514H28.1365L22.6741 13.7967L20.8189 10.7253L17.3663 5.07015C17.8301 4.9239 18.5515 4.87514 19.6337 4.87514ZM15.0989 36.1248C12.6769 36.1248 10.4095 35.2961 8.65739 33.931C6.49304 32.2247 5.10168 29.5921 5.10168 26.7158C5.10168 24.9608 5.617 23.352 6.49304 21.9382C6.49304 21.9382 15.0474 7.89774 15.0989 7.84899L18.4485 13.3092L23.7047 21.9382C24.5808 23.352 25.0961 24.9608 25.0961 26.7158C25.0446 31.9322 20.6128 36.1248 15.0989 36.1248Z" fill="#00A19C"/>
</svg>